<?xml version="1.0" encoding="UTF-8"?>
<svg version="1.1" xmlns="http://www.w3.org/2000/svg" width="411" height="304">
<path d="M0 0 C5.62284379 4.92156246 10.76753913 10.14446881 15.5 15.9375 C16.23605469 16.83726563 16.97210938 17.73703125 17.73046875 18.6640625 C41.85500572 49.47371212 52.00045396 88.34206732 47.55712891 127.03637695 C43.12848309 160.30901691 43.12848309 160.30901691 35.5 167.9375 C33.83382885 167.97813832 32.16611905 167.980221 30.5 167.9375 C29.23374499 164.99030998 29.54886094 163.78931809 30.57421875 160.6796875 C31.10564331 159.3880001 31.64385053 158.09908993 32.1875 156.8125 C36.89447131 145.00327767 39.68099946 132.63200832 40.5 119.9375 C40.04560547 121.4225 40.04560547 121.4225 39.58203125 122.9375 C33.04399468 143.75903743 33.04399468 143.75903743 23.6875 148.94140625 C18.84688135 151.04972257 14.54986965 151.69177199 9.5 149.9375 C2.98916605 146.62805121 0.92881297 141.05721685 -1.390625 134.4453125 C-2.46106395 131.0606147 -3.45378827 127.6607382 -4.4375 124.25 C-7.54716233 113.92192472 -12.14251206 106.49769325 -21.625 101.1875 C-30.19481934 97.89578131 -39.1804854 98.25604232 -47.5 101.9375 C-54.26937958 105.19886101 -58.33572093 111.26927349 -61.5 117.9375 C-62.64509238 122.20381465 -62.86913274 124.14486613 -60.98828125 128.18359375 C-60.27027344 129.23675781 -59.55226562 130.28992188 -58.8125 131.375 C-58.06434691 132.51297168 -57.31823871 133.65229049 -56.57421875 134.79296875 C-55.88972656 135.83066406 -55.20523438 136.86835938 -54.5 137.9375 C-50.0686754 145.45925846 -47.6345221 153.13437213 -48.87890625 161.921875 C-49.87465321 165.15335569 -51.91927953 166.87292362 -54.5 168.9375 C-54.83 169.2675 -55.16 169.5975 -55.5 169.9375 C-59.53054561 170.20620304 -62.45484054 170.31755798 -66.25 168.9375 C-70.89294516 164.81043763 -73.02929681 159.05664152 -73.5 152.9375 C-73.98570179 143.14512515 -72.78495383 133.62054493 -71.5 123.9375 C-79.51226167 118.15995077 -86.46562044 114.90116244 -96.5 115.9375 C-104.57593147 117.47270103 -112.63558109 121.07308109 -118.5 126.9375 C-118.55819548 129.04806953 -118.55819548 129.04806953 -118.1875 131.4375 C-118.08050781 132.33597656 -117.97351563 133.23445312 -117.86328125 134.16015625 C-117.63332523 135.91820708 -117.40175802 137.67604856 -117.16796875 139.43359375 C-116.06451964 148.62900303 -115.81854604 158.12060299 -121.5 165.9375 C-125.17603269 168.38818846 -128.22761034 168.64382248 -132.5 167.9375 C-135.7520591 165.60268834 -136.75429656 163.76958711 -137.5 159.9375 C-138.5566933 149.56111826 -136.37835844 139.49592836 -130.125 131.0625 C-127.7172382 127.72505356 -127.7172382 127.72505356 -127.6875 123.5625 C-128.41073865 121.80211259 -128.41073865 121.80211259 -129.5 119.9375 C-129.96148437 119.091875 -130.42296875 118.24625 -130.8984375 117.375 C-136.02301432 108.7137434 -143.24590612 98.62393213 -153.5 95.9375 C-163.07753812 94.51347131 -170.57087136 96.42454361 -178.5 101.9375 C-188.72781064 110.87637215 -192.46411448 122.69092143 -193.5 135.9375 C-193.84405591 146.60053464 -193.68919869 157.27251523 -193.5 167.9375 C-195.15 167.6075 -196.8 167.2775 -198.5 166.9375 C-201.73195822 145.4866805 -201.18229163 122.73075176 -189.5 103.9375 C-187.40202887 101.20492813 -185.22319577 99.03909673 -182.5 96.9375 C-181.90703125 96.46957031 -181.3140625 96.00164062 -180.703125 95.51953125 C-173.22267054 90.24921107 -163.90913411 87.97946809 -154.86328125 89.37890625 C-141.63122264 92.50648374 -132.76235507 102.48620626 -125.8046875 113.66015625 C-124.34557033 116.07278953 -122.91068712 118.49631095 -121.5 120.9375 C-120.68208984 120.35742188 -120.68208984 120.35742188 -119.84765625 119.765625 C-108.59968919 111.99779817 -99.2669397 108.87063525 -85.5 109.9375 C-78.96152908 111.51885951 -73.18529193 114.39998502 -67.5 117.9375 C-67.2421875 117.0609375 -66.984375 116.184375 -66.71875 115.28125 C-63.21132913 105.65832606 -56.64725446 99.21655463 -47.5 94.9375 C-37.32816003 90.48732001 -28.59274086 92.01696024 -18.5 95.9375 C-10.8470441 99.01006222 -5.44486281 105.01125114 -1.8359375 112.296875 C0.39315597 117.52686011 2.20088291 122.87958872 3.83984375 128.3203125 C4.05680908 129.03952881 4.27377441 129.75874512 4.49731445 130.49975586 C4.90544629 131.8816258 5.29934297 133.26780771 5.67651367 134.65844727 C6.85531042 138.76409223 8.17798589 141.22969525 11.5 143.9375 C13.29649965 145.0328531 13.29649965 145.0328531 15.5 144.9375 C22.41100901 142.59269337 25.67244322 139.71031391 29.125 133.4375 C38.64699431 113.27673428 31.55795481 87.00857226 24.45703125 67.03515625 C18.66714537 51.51290055 10.17655415 37.58078781 -0.5 24.9375 C-1.49773437 23.71933594 -1.49773437 23.71933594 -2.515625 22.4765625 C-22.57935567 -1.07974351 -53.90075618 -15.23679466 -84.45751953 -17.91748047 C-106.35289625 -19.47208886 -126.01670826 -15.66229212 -146.5 -8.0625 C-147.64210938 -7.66160156 -148.78421875 -7.26070312 -149.9609375 -6.84765625 C-177.74010423 3.61607813 -199.46243413 28.48620906 -211.828125 54.75 C-226.21893578 86.82457193 -226.89221023 120.87912308 -215.5 153.9375 C-214.46725038 156.39611039 -213.37524157 158.79919916 -212.21484375 161.19921875 C-211.26952514 163.49794434 -211.18375597 165.48660879 -211.5 167.9375 C-213.8125 167.8125 -213.8125 167.8125 -216.5 166.9375 C-219.22148135 162.64593326 -220.80645995 157.71872849 -222.5 152.9375 C-222.84877197 151.96103516 -222.84877197 151.96103516 -223.20458984 150.96484375 C-234.85145377 117.41653992 -231.62167326 81.5061332 -216.35546875 49.69042969 C-200.82619694 17.86960447 -174.8727404 -4.92118692 -141.6640625 -16.8515625 C-136.9914478 -18.44416399 -132.27389732 -19.80923446 -127.5 -21.0625 C-126.8395166 -21.24039062 -126.1790332 -21.41828125 -125.49853516 -21.6015625 C-91.74354405 -30.27036021 -55.16576279 -22.2802103 -25.5 -5.0625 C-21.6423991 -2.60536496 -18.05664223 0.06463117 -14.5 2.9375 C-13.96745605 3.36466309 -13.43491211 3.79182617 -12.88623047 4.23193359 C-6.17325996 9.64735833 0.13760512 15.14351553 5.5 21.9375 C6.25539063 22.845 7.01078125 23.7525 7.7890625 24.6875 C25.98870055 46.97196951 37.69351544 76.31135753 40.5 104.9375 C42.26614648 75.24007396 28.85253404 42.55789844 9.44140625 20.35546875 C6.5388371 17.13825059 3.52884662 14.03567645 0.5 10.9375 C-0.40298828 9.94169922 -0.40298828 9.94169922 -1.32421875 8.92578125 C-20.44928133 -11.74084809 -51.17354827 -23.44788998 -78.5 -27.0625 C-79.41910156 -27.19269531 -80.33820313 -27.32289062 -81.28515625 -27.45703125 C-83.69402988 -27.75079633 -86.07668474 -27.93616603 -88.5 -28.0625 C-89.47066406 -28.11535156 -90.44132813 -28.16820312 -91.44140625 -28.22265625 C-128.01952735 -29.21592282 -163.71296307 -15.03349499 -190.47265625 9.65234375 C-205.61272253 24.00213184 -216.6704033 41.5497021 -223.875 61.0625 C-224.19686279 61.93205322 -224.51872559 62.80160645 -224.8503418 63.69750977 C-229.73939405 77.58883172 -231.03503059 90.50704915 -231.00097656 105.12109375 C-231.00000831 108.03747699 -231.04168113 110.9511843 -231.0859375 113.8671875 C-231.19236195 130.69220041 -228.09622811 145.9879989 -221.3203125 161.40625 C-220.44197699 164.11654242 -220.49780915 165.31448198 -221.5 167.9375 C-223.15 167.9375 -224.8 167.9375 -226.5 167.9375 C-242.66274143 134.39009168 -243.51713546 94.71161909 -231.51757812 59.671875 C-226.16665508 45.29319502 -219.15981921 31.8621502 -209.5 19.9375 C-209.06719727 19.3894873 -208.63439453 18.84147461 -208.18847656 18.27685547 C-197.1390356 4.33389764 -184.74297471 -5.99461191 -169.5 -15.0625 C-168.55036377 -15.62928467 -168.55036377 -15.62928467 -167.58154297 -16.20751953 C-114.60975015 -47.30854287 -46.3915196 -39.40628943 0 0 Z M-66.5 130.9375 C-68.49336069 141.00314777 -69.50703742 150.70512063 -66.3125 160.625 C-64.01816286 163.55225773 -62.07865387 164.14224358 -58.5 164.9375 C-56.16845556 163.26170243 -54.70204623 161.89139133 -54.09375 159.01953125 C-53.67070821 149.06042255 -58.89342436 139.86679983 -64.5 131.9375 C-65.16 131.6075 -65.82 131.2775 -66.5 130.9375 Z M-125.5 133.9375 C-126.48669759 135.82942475 -127.4640602 137.72621978 -128.4375 139.625 C-128.98277344 140.68074219 -129.52804688 141.73648438 -130.08984375 142.82421875 C-132.7218474 148.63504122 -133.59014262 154.73520606 -131.5 160.875 C-131.17 161.555625 -130.84 162.23625 -130.5 162.9375 C-128.08414426 162.90656827 -128.08414426 162.90656827 -125.5 161.9375 C-122.16256409 156.91951126 -122.09867494 152.61014152 -122.25 146.8125 C-122.25515625 146.01457031 -122.2603125 145.21664062 -122.265625 144.39453125 C-122.31460332 140.72727974 -122.50781323 137.48571101 -123.5 133.9375 C-124.16 133.9375 -124.82 133.9375 -125.5 133.9375 Z " fill="#D7CAA2" transform="translate(293.5,40.0625)"/>
<path d="M0 0 C5.62284379 4.92156246 10.76753913 10.14446881 15.5 15.9375 C16.23605469 16.83726563 16.97210938 17.73703125 17.73046875 18.6640625 C41.85500572 49.47371212 52.00045396 88.34206732 47.55712891 127.03637695 C43.12848309 160.30901691 43.12848309 160.30901691 35.5 167.9375 C33.83382885 167.97813832 32.16611905 167.980221 30.5 167.9375 C29.23374499 164.99030998 29.54886094 163.78931809 30.57421875 160.6796875 C31.10561774 159.38798958 31.64382988 158.0990812 32.1875 156.8125 C35.43344402 148.67313515 37.44369848 140.51100784 39.109375 131.92236328 C39.44182829 130.23308498 39.81084318 128.55106876 40.1875 126.87109375 C46.93257182 93.94202785 35.47874642 58.41490239 17.5390625 30.93359375 C12.49086417 23.69097452 6.56901067 17.31915668 0.5 10.9375 C-0.08265625 10.29039063 -0.6653125 9.64328125 -1.265625 8.9765625 C-20.47753559 -11.69079586 -51.09651879 -23.4377009 -78.5 -27.0625 C-79.41910156 -27.19269531 -80.33820313 -27.32289062 -81.28515625 -27.45703125 C-83.69402988 -27.75079633 -86.07668474 -27.93616603 -88.5 -28.0625 C-89.47066406 -28.11535156 -90.44132813 -28.16820312 -91.44140625 -28.22265625 C-128.01952735 -29.21592282 -163.71296307 -15.03349499 -190.47265625 9.65234375 C-205.61272253 24.00213184 -216.6704033 41.5497021 -223.875 61.0625 C-224.19686279 61.93205322 -224.51872559 62.80160645 -224.8503418 63.69750977 C-229.73939405 77.58883172 -231.03503059 90.50704915 -231.00097656 105.12109375 C-231.00000831 108.03747699 -231.04168113 110.9511843 -231.0859375 113.8671875 C-231.19236195 130.69220041 -228.09622811 145.9879989 -221.3203125 161.40625 C-220.44197699 164.11654242 -220.49780915 165.31448198 -221.5 167.9375 C-223.15 167.9375 -224.8 167.9375 -226.5 167.9375 C-242.66274143 134.39009168 -243.51713546 94.71161909 -231.51757812 59.671875 C-226.16665508 45.29319502 -219.15981921 31.8621502 -209.5 19.9375 C-209.06719727 19.3894873 -208.63439453 18.84147461 -208.18847656 18.27685547 C-197.1390356 4.33389764 -184.74297471 -5.99461191 -169.5 -15.0625 C-168.55036377 -15.62928467 -168.55036377 -15.62928467 -167.58154297 -16.20751953 C-114.60975015 -47.30854287 -46.3915196 -39.40628943 0 0 Z " fill="#3783AF" transform="translate(293.5,40.0625)"/>
<path d="M0 0 C1.65 0 3.3 0 5 0 C6.19695817 8.07725103 5.91159896 15.92087022 5.5625 24.0625 C5.50915126 25.41859576 5.45641226 26.77471565 5.40429688 28.13085938 C5.27550683 31.42085957 5.14058296 34.71048617 5 38 C7.95867918 37.85953745 10.91682264 37.71287776 13.875 37.5625 C14.71675781 37.52318359 15.55851562 37.48386719 16.42578125 37.44335938 C17.23144531 37.40146484 18.03710938 37.35957031 18.8671875 37.31640625 C19.61081543 37.27974854 20.35444336 37.24309082 21.12060547 37.20532227 C23.08864312 37.10044135 23.08864312 37.10044135 25 36 C25 36.66 25 37.32 25 38 C27.97 37.505 27.97 37.505 31 37 C31.66 34.03 32.32 31.06 33 28 C33.99 28 34.98 28 36 28 C36.99 30.64 37.98 33.28 39 36 C42.12082041 27.13029989 44.52567589 18.06600177 47 9 C49.47479713 11.47479713 49.34061584 12.47730343 49.59765625 15.90234375 C49.67693359 16.87494141 49.75621094 17.84753906 49.83789062 18.84960938 C49.91201172 19.86861328 49.98613281 20.88761719 50.0625 21.9375 C50.21687 23.94686158 50.37428857 25.95599192 50.53515625 27.96484375 C50.63389038 29.30470337 50.63389038 29.30470337 50.73461914 30.67163086 C50.93617446 33.15312487 50.93617446 33.15312487 52 36 C52 30.39 52 24.78 52 19 C52.99 18.505 52.99 18.505 54 18 C54.495 19.98 54.495 19.98 55 22 C55.495 20.515 55.495 20.515 56 19 C56.66 19 57.32 19 58 19 C58.495 27.91 58.495 27.91 59 37 C63.62 37 68.24 37 73 37 C73 37.99 73 38.98 73 40 C67.39 40 61.78 40 56 40 C53.78995704 46.3786209 53.78995704 46.3786209 54.125 50.6875 C54 54 54 54 52 56.4375 C51.34 56.953125 50.68 57.46875 50 58 C47.81858786 55.81858786 48.29390499 51.09999379 48 48.0625 C47.86972412 46.76928833 47.86972412 46.76928833 47.73681641 45.44995117 C47.48737444 42.96699739 47.24334269 40.48355763 47 38 C46.79189787 35.93747666 46.58363135 33.87496988 46.375 31.8125 C46.25125 30.554375 46.1275 29.29625 46 28 C45.63720544 29.28926992 45.28503302 30.58153272 44.9375 31.875 C44.74027344 32.59429687 44.54304688 33.31359375 44.33984375 34.0546875 C43.78867393 36.07273593 43.78867393 36.07273593 45 38 C43.19873295 40.27528469 42.3633843 40.94682181 39.4375 41.375 C38.2309375 41.189375 38.2309375 41.189375 37 41 C36.34 40.01 35.68 39.02 35 38 C34.34 38.99 33.68 39.98 33 41 C25.97488816 42.89259003 18.05335972 41.95977563 10.875 41.5625 C9.823125 41.51029297 8.77125 41.45808594 7.6875 41.40429688 C5.1245845 41.2761511 2.56221936 41.14127766 0 41 C-0.33 40.01 -0.66 39.02 -1 38 C-1.86625 38.350625 -2.7325 38.70125 -3.625 39.0625 C-8.66769312 40.46324809 -11.56871406 39.72967518 -16.1875 37.375 C-20.01327317 34.1443471 -21.57555026 30.99472873 -22.28125 26.015625 C-22.56181305 19.98351933 -20.86056213 15.2675601 -17 10.5625 C-12.47704292 8.20679319 -8.00739819 8.50812997 -3 9 C-2.34 9.33 -1.68 9.66 -1 10 C-0.67 6.7 -0.34 3.4 0 0 Z M-16 18 C-17.45560969 22.19715678 -17.28862309 25.22071767 -15.75 29.375 C-14.10416667 32.20833333 -14.10416667 32.20833333 -11 34 C-6.93669692 33.92612176 -4.73203411 33.60064337 -1.5625 31 C0.56801541 26.90941041 0.93992643 23.51982013 0 19 C-2.43420418 15.49188221 -3.79342584 14.22623266 -8 13.4375 C-11.84209775 14.15789333 -13.41773756 15.04884292 -16 18 Z " fill="#66A0C1" transform="translate(325,223)"/>
<path d="M0 0 C0.7425 0.03158203 1.485 0.06316406 2.25 0.09570312 C7.64356761 0.42446299 12.09635606 1.22963055 16.0480957 5.26611328 C19.58030842 9.69682107 20.55247443 13.8369863 21.1875 19.375 C21.89210417 25.27801718 22.96704701 28.91332544 26.625 33.8125 C27.375 36.1875 27.375 36.1875 27.625 37.8125 C20.62073834 43.99273088 13.61867756 44.2594907 4.625 44.8125 C4.625 40.8125 4.625 40.8125 6.0859375 39.28515625 C6.71757812 38.81980469 7.34921875 38.35445312 8 37.875 C11.05768554 35.38676197 12.87754152 33.83008934 13.625 29.8125 C13.69189105 23.81460275 12.68987591 19.42668347 8.625 14.8125 C4.18803322 11.78729538 -0.09463602 10.92392811 -5.375 11.8125 C-9.91151676 13.27559567 -12.53189237 15.51038708 -14.8125 19.6875 C-16.32786579 23.25849243 -17.10552992 25.91634044 -16.375 29.8125 C-13.89247076 34.95052159 -10.56140144 38.98493297 -6.375 42.8125 C-11.58092258 44.54780753 -16.26017226 42.85312952 -21.08203125 40.48046875 C-25.36035989 38.00617913 -28.58696409 35.96757287 -31.375 31.8125 C-30.09087256 28.98863682 -28.73290529 27.0115386 -26.5625 24.8125 C-23.79597274 21.70434346 -22.37145667 18.68682147 -20.875 14.8125 C-18.57945687 8.92232825 -15.9010427 4.34295417 -10.71484375 0.62109375 C-7.15372167 -0.60954443 -3.69744016 -0.2509431 0 0 Z " fill="#D3C497" transform="translate(258.375,86.1875)"/>
<path d="M0 0 C3.89572281 3.43025983 5.62715382 6.78015348 6 12 C4.68 12.33 3.36 12.66 2 13 C1.63648438 12.44570312 1.27296875 11.89140625 0.8984375 11.3203125 C-1.42753988 7.96851945 -3.20796171 5.44002127 -6.8125 3.4375 C-12.39042506 2.67190244 -17.07598732 2.81284324 -21.9375 5.8125 C-26.03724745 10.160717 -26.38209823 13.78238005 -26.25390625 19.59375 C-25.82257444 23.6814484 -24.08634285 25.83009232 -21.375 28.75 C-17.19448839 30.95026927 -12.59413969 31.60247774 -7.96484375 30.52734375 C-4.2801175 29.09569852 -1.93521278 27.44037827 0 24 C0.495 22.515 0.495 22.515 1 21 C-3.95 21 -8.9 21 -14 21 C-13.67 19.35 -13.34 17.7 -13 16 C-10.02077407 15.97316013 -7.04178705 15.95323963 -4.0625 15.9375 C-2.78729492 15.92493164 -2.78729492 15.92493164 -1.48632812 15.91210938 C-0.67744141 15.90888672 0.13144531 15.90566406 0.96484375 15.90234375 C1.7137085 15.89710693 2.46257324 15.89187012 3.23413086 15.88647461 C5 16 5 16 6 17 C6.45100609 21.19782593 6.46406632 24.90089555 4.8125 28.8125 C0.9777693 33.44062326 -3.17702474 36.62299379 -9.2578125 37.22265625 C-15.80107141 37.45277086 -21.80964406 36.94013194 -26.79296875 32.34765625 C-31.19094381 27.40646337 -32.16477146 23.85663352 -32.25 17.1875 C-32.28867187 15.38345703 -32.28867187 15.38345703 -32.328125 13.54296875 C-31.82774452 8.14005091 -30.03415986 5.01117853 -26.1875 1.25 C-18.26004177 -4.34585287 -8.4517414 -4.97161259 0 0 Z " fill="#BB9D74" transform="translate(54,225)"/>
<path d="M0 0 C4.83587093 4.21832356 8.10665943 8.52328088 9 15 C9.06121347 21.39680738 8.29427766 26.0276785 4 31 C-2.2099147 37.01187641 -6.3668114 38.32854359 -15.0625 38.203125 C-20.85512562 37.8025711 -23.86138159 35.36016211 -27.75 31.3125 C-31.74860123 26.43615704 -33.12702718 22.61498193 -32.90625 16.33203125 C-32.04494247 9.23603167 -29.60400738 4.49201377 -24 0 C-16.56217316 -4.39440468 -7.43078343 -4.44957092 0 0 Z M-24.25 8.54296875 C-27.23824508 13.07721562 -27.68042447 16.64165734 -27 22 C-24.75363633 26.32633002 -22.19054939 29.48567037 -18 32 C-13.58514537 33.19364588 -10.11432935 33.36429998 -5.75 31.9375 C-1.95577892 29.26429878 0.89871529 26.20256941 3 22 C3.56350726 17.38108804 3.4422879 13.90158688 1.375 9.6875 C-1.84256319 6.04657323 -4.43970836 3.4086459 -9.3984375 2.6171875 C-15.75649105 2.33078869 -20.06798874 3.3807986 -24.25 8.54296875 Z " fill="#D7CAA1" transform="translate(145,89)"/>
<path d="M0 0 C4.83735148 2.61364524 8.06265925 6.09032151 9.79296875 11.28125 C10.27811357 16.79281333 10.56034191 21.65796062 8.16796875 26.71875 C3.08735678 32.20046291 -0.42119519 34.96576366 -7.95703125 35.59375 C-12.70980331 35.505244 -16.38076624 34.08554251 -20.20703125 31.28125 C-24.31468422 26.89907567 -25.94783479 22.97689321 -26.51953125 17.03125 C-26.0121202 10.94231744 -23.76177588 6.32382693 -19.08203125 2.34375 C-13.4891383 -1.66854277 -6.61688918 -2.15488073 0 0 Z M-6.20703125 4.28125 C-6.86703125 6.26125 -7.52703125 8.24125 -8.20703125 10.28125 C-5.80157487 11.48397819 -4.25706172 11.38196472 -1.58203125 11.34375 C-0.76476562 11.33472656 0.0525 11.32570313 0.89453125 11.31640625 C1.52101562 11.30480469 2.1475 11.29320313 2.79296875 11.28125 C2.15290097 7.83395827 2.15290097 7.83395827 -0.58203125 5.53125 C-3.17389054 4.06628321 -3.17389054 4.06628321 -6.20703125 4.28125 Z M-15.20703125 5.28125 C-16.52703125 6.60125 -17.84703125 7.92125 -19.20703125 9.28125 C-18.87703125 9.94125 -18.54703125 10.60125 -18.20703125 11.28125 C-16.88703125 10.62125 -15.56703125 9.96125 -14.20703125 9.28125 C-14.53703125 7.96125 -14.86703125 6.64125 -15.20703125 5.28125 Z M-16.89453125 13.71875 C-17.70277344 14.00621094 -18.51101562 14.29367188 -19.34375 14.58984375 C-19.95863281 14.81800781 -20.57351562 15.04617187 -21.20703125 15.28125 C-20.95044033 21.2183157 -20.95044033 21.2183157 -17.89453125 26.15625 C-13.18365267 29.88113074 -10.35662629 30.917415 -4.20703125 30.28125 C-0.37860258 28.21978841 2.69841991 26.13962944 4.79296875 22.28125 C5.51777959 18.62850531 5.51777959 18.62850531 5.79296875 15.28125 C1.6849761 14.11586201 -2.4060935 13.88484907 -6.6484375 13.5625 C-11.81768461 12.64767433 -11.81768461 12.64767433 -16.89453125 13.71875 Z " fill="#D8CBA3" transform="translate(207.20703125,112.71875)"/>
<path d="M0 0 C3.00954677 2.85521104 3.93587415 4.15033242 4.25 8.3125 C4.1675 9.199375 4.085 10.08625 4 11 C2.02 11 0.04 11 -2 11 C-2.99 8.69 -3.98 6.38 -5 4 C-12.79388641 2.58090481 -12.79388641 2.58090481 -20 5 C-20.87482701 7.15342034 -21 8.69010775 -21 11 C-19.84242188 11.25394531 -18.68484375 11.50789062 -17.4921875 11.76953125 C-15.9530329 12.11677954 -14.41397547 12.46445867 -12.875 12.8125 C-11.73417969 13.0609668 -11.73417969 13.0609668 -10.5703125 13.31445312 C0.57349047 15.8602357 0.57349047 15.8602357 4 21 C4.54543879 24.06594015 4.53376742 26.93218522 4 30 C1.42317257 33.36419137 -1.11239767 35.39425121 -5 37 C-11.51251762 37.77867059 -18.31655089 37.5571705 -24 34 C-27.12599021 30.56141077 -27.94983198 28.77760428 -28.25 24.125 C-28.1675 23.09375 -28.085 22.0625 -28 21 C-26.35 21 -24.7 21 -23 21 C-22.814375 22.093125 -22.62875 23.18625 -22.4375 24.3125 C-21.33087054 28.20730881 -21.33087054 28.20730881 -17.9375 30 C-13.63185048 31.47132258 -9.36377809 31.12477226 -5 30 C-4.01 29.34 -3.02 28.68 -2 28 C-1.86559222 25.57080135 -1.86559222 25.57080135 -3 23 C-6.5921395 21.27045135 -9.92390101 20.24463617 -13.80078125 19.36328125 C-22.26291788 17.38229392 -22.26291788 17.38229392 -25.1875 14.25 C-27.34615939 10.3793004 -27.71429314 8.36512474 -27 4 C-25.14037449 0.78141738 -23.69479645 -0.65260178 -20.375 -2.3125 C-13.01301245 -3.81216413 -6.58231013 -3.81773987 0 0 Z " fill="#BD9F77" transform="translate(229,225)"/>
<path d="M0 0 C1.65 0 3.3 0 5 0 C6.19695817 8.07725103 5.91159896 15.92087022 5.5625 24.0625 C5.50915126 25.41859576 5.45641226 26.77471565 5.40429688 28.13085938 C5.27550683 31.42085957 5.14058296 34.71048617 5 38 C7.95867918 37.85953745 10.91682264 37.71287776 13.875 37.5625 C14.71675781 37.52318359 15.55851562 37.48386719 16.42578125 37.44335938 C17.23144531 37.40146484 18.03710938 37.35957031 18.8671875 37.31640625 C19.61081543 37.27974854 20.35444336 37.24309082 21.12060547 37.20532227 C23.08864312 37.10044135 23.08864312 37.10044135 25 36 C25 36.66 25 37.32 25 38 C27.97 37.505 27.97 37.505 31 37 C31 37.66 31 38.32 31 39 C20 39 9 39 -2 39 C-3.216875 39.2475 -4.43375 39.495 -5.6875 39.75 C-9.83794711 40.26211778 -12.62088772 39.49571195 -16.234375 37.42578125 C-19.94576731 34.42874985 -21.57097806 30.58892549 -22.33984375 25.94921875 C-22.63405948 19.88837473 -20.80033261 15.19415537 -17 10.5625 C-12.47704292 8.20679319 -8.00739819 8.50812997 -3 9 C-2.34 9.33 -1.68 9.66 -1 10 C-0.67 6.7 -0.34 3.4 0 0 Z M-16 18 C-17.45560969 22.19715678 -17.28862309 25.22071767 -15.75 29.375 C-14.10416667 32.20833333 -14.10416667 32.20833333 -11 34 C-6.93669692 33.92612176 -4.73203411 33.60064337 -1.5625 31 C0.56801541 26.90941041 0.93992643 23.51982013 0 19 C-2.43420418 15.49188221 -3.79342584 14.22623266 -8 13.4375 C-11.84209775 14.15789333 -13.41773756 15.04884292 -16 18 Z " fill="#BDA078" transform="translate(325,223)"/>
<path d="M0 0 C3.62910315 2.0454945 5.50449169 3.52035713 6.84375 7.51953125 C7.38983105 10.03078554 7.84322523 12.43459464 8 15 C6.3914971 16.6085029 4.53212353 16.33543801 2.30859375 16.53515625 C1.36435547 16.62216797 0.42011719 16.70917969 -0.55273438 16.79882812 C-1.54595703 16.88583984 -2.53917969 16.97285156 -3.5625 17.0625 C-4.55958984 17.15337891 -5.55667969 17.24425781 -6.58398438 17.33789062 C-9.05565702 17.56258814 -11.52763256 17.78310351 -14 18 C-13.27694958 20.02041975 -13.27694958 20.02041975 -12 22 C-8.10752857 22.87894516 -5.42340138 23.44949517 -1.625 22.25 C0.28677108 20.91791442 0.28677108 20.91791442 2 18 C3.65 18.33 5.3 18.66 7 19 C5.53295129 24.50143266 5.53295129 24.50143266 3.0625 26.8125 C-1.50409791 29.44175334 -5.87407102 29.47316268 -11 29 C-14.80613179 27.7312894 -16.47321278 26.70238295 -18.875 23.5 C-20.73132986 17.72475154 -21.11197934 11.75068574 -18.8125 6.0625 C-13.14112531 -0.39113326 -8.21731967 -1.9772049 0 0 Z M-15 10 C-15 10.33 -15 10.66 -15 11 C-9.39 11 -3.78 11 2 11 C0.23148964 7.81925835 0.23148964 7.81925835 -2 5 C-8.3483777 4.36516223 -10.86579373 4.70304821 -15 10 Z " fill="#BC9E76" transform="translate(83,233)"/>
<path d="M0 0 C1.32 0 2.64 0 4 0 C4.36923077 4.55384615 4.36923077 4.55384615 2.5 6.8125 C2.005 7.204375 1.51 7.59625 1 8 C2.0725 8.391875 3.145 8.78375 4.25 9.1875 C7.90495216 10.74862329 9.80885755 12.62901161 12 16 C13.80949727 21.4284918 13.67895797 26.9631261 11.875 32.375 C9.49195941 35.71125683 7.7292443 37.23708451 4 39 C-1.02023393 39.79997224 -4.82265121 39.55656488 -9.4375 37.375 C-13.97053842 33.17364732 -15.1819796 29.57479141 -15.4375 23.5 C-15.29076179 18.59760966 -14.46968962 15.65724041 -11 12 C-9.34416775 11.30686092 -7.67889021 10.63525576 -6 10 C-5.62243192 8.67851173 -5.2981424 7.34164079 -5 6 C-2.6875 2.75 -2.6875 2.75 0 0 Z M-9 18 C-10.31271288 22.31665093 -10.52536703 25.76538747 -8.75 29.9375 C-6.40730636 32.69853179 -4.74257427 33.90314249 -1.125 34.375 C2.91741651 33.88991002 4.35014946 33.10411063 7 30 C8.31271288 25.68334907 8.52536703 22.23461253 6.75 18.0625 C4.40730636 15.30146821 2.74257427 14.09685751 -0.875 13.625 C-4.91741651 14.11008998 -6.35014946 14.89588937 -9 18 Z " fill="#BB9C73" transform="translate(157,223)"/>
<path d="M0 0 C2.88301208 0.12794628 2.88301208 0.12794628 5.125 -0.5625 C5.74375 -0.706875 6.3625 -0.85125 7 -1 C8 0 8 0 8.11352539 2.68383789 C8.10828857 3.85164795 8.10305176 5.01945801 8.09765625 6.22265625 C8.09443359 7.48271484 8.09121094 8.74277344 8.08789062 10.04101562 C8.07953403 11.38151109 8.07106907 12.72200588 8.0625 14.0625 C8.0574866 15.40689942 8.05292342 16.7513006 8.04882812 18.09570312 C8.03699488 21.39717941 8.02050971 24.69856803 8 28 C4.98968256 28.93423645 4.13349732 29.04449911 1 28 C-0.2375 28.37125 -1.475 28.7425 -2.75 29.125 C-6.21641112 30.06806773 -7.07360529 29.97791841 -10.75 28.875 C-14.95950464 26.44643963 -17.44671791 24.65984626 -19 20 C-19.48804239 14.45551842 -19.69506817 9.58475542 -17.4375 4.4375 C-11.90952103 -1.09047897 -7.22714464 -1.32497652 0 0 Z M-11.9375 6.3125 C-14.33547802 10.12105332 -14.30220546 13.61802077 -14 18 C-12.25271222 21.72803465 -12.25271222 21.72803465 -9 24 C-5.40295807 24.39967133 -3.43220113 24.2209028 -0.1875 22.5625 C2.89053221 18.95680513 3.3083323 15.67498435 3 11 C1.66498121 7.94852848 0.97626566 6.48813283 -2 5 C-7.27077153 4.45235133 -7.27077153 4.45235133 -11.9375 6.3125 Z " fill="#BB9D74" transform="translate(255,233)"/>
<path d="M0 0 C2.625 2.1875 2.625 2.1875 4 5 C4.25 8.3125 4.25 8.3125 4 11 C2.35 11 0.7 11 -1 11 C-1.66 9.35 -2.32 7.7 -3 6 C-5.64 6 -8.28 6 -11 6 C-11.33 7.32 -11.66 8.64 -12 10 C-11.09636719 10.18175781 -10.19273438 10.36351562 -9.26171875 10.55078125 C-8.08222656 10.80214844 -6.90273437 11.05351562 -5.6875 11.3125 C-4.51574219 11.55613281 -3.34398438 11.79976562 -2.13671875 12.05078125 C2.27562945 13.38602485 2.27562945 13.38602485 4 16 C4.3984375 18.15625 4.3984375 18.15625 4.375 20.5 C4.38273437 21.2734375 4.39046875 22.046875 4.3984375 22.84375 C3.9056562 25.51056642 3.1276451 26.36181317 1 28 C-4.24842016 29.74947339 -9.83770855 29.85590703 -15 27.8125 C-17.40916591 25.6291934 -18.2474321 24.16078519 -19 21 C-18.625 18.1875 -18.625 18.1875 -18 16 C-16.68 16 -15.36 16 -14 16 C-13.67 17.98 -13.34 19.96 -13 22 C-11.54263913 22.19491452 -10.08405407 22.38069358 -8.625 22.5625 C-7.81289062 22.66691406 -7.00078125 22.77132812 -6.1640625 22.87890625 C-3.95100814 23.18237328 -3.95100814 23.18237328 -2 22 C-2 21.01 -2 20.02 -2 19 C-2.90363281 18.76925781 -3.80726562 18.53851563 -4.73828125 18.30078125 C-5.91777344 17.97464844 -7.09726563 17.64851563 -8.3125 17.3125 C-9.48425781 16.99925781 -10.65601562 16.68601563 -11.86328125 16.36328125 C-15.50963241 14.77850347 -16.46926201 13.6160912 -18 10 C-17.92452557 6.30175314 -17.46171987 4.56945451 -15.125 1.6875 C-10.52200799 -1.96781718 -5.45183232 -1.29380636 0 0 Z " fill="#BD9F77" transform="translate(111,233)"/>
<path d="M0 0 C1.32 0 2.64 0 4 0 C4.02505615 0.55985596 4.0501123 1.11971191 4.07592773 1.6965332 C4.19203745 4.23541305 4.3146958 6.77393553 4.4375 9.3125 C4.47681641 10.19357422 4.51613281 11.07464844 4.55664062 11.98242188 C4.59853516 12.82998047 4.64042969 13.67753906 4.68359375 14.55078125 C4.72025146 15.33106689 4.75690918 16.11135254 4.79467773 16.9152832 C4.94125263 19.19329101 4.94125263 19.19329101 6 22 C9.30567489 22.85387105 9.30567489 22.85387105 13 23 C15.38285878 21.66383711 15.38285878 21.66383711 17 19 C17.62389527 15.92221592 17.69614078 12.88362717 17.75 9.75 C17.77964844 8.90953125 17.80929687 8.0690625 17.83984375 7.203125 C17.91031636 5.1359285 17.95744939 3.06795967 18 1 C19.65 0.67 21.3 0.34 23 0 C23 9.24 23 18.48 23 28 C19 29 19 29 16 29 C15.16726563 29.05800781 14.33453125 29.11601562 13.4765625 29.17578125 C5.73887344 29.54676634 5.73887344 29.54676634 1.875 26.6875 C-0.60607235 23.1312963 -1.12696475 20.59678502 -1.1328125 16.3671875 C-1.13410156 15.47902344 -1.13539063 14.59085938 -1.13671875 13.67578125 C-1.13285156 12.75152344 -1.12898438 11.82726562 -1.125 10.875 C-1.12886719 9.94300781 -1.13273437 9.01101562 -1.13671875 8.05078125 C-1.13542969 7.16519531 -1.13414062 6.27960938 -1.1328125 5.3671875 C-1.13168457 4.55362793 -1.13055664 3.74006836 -1.12939453 2.90185547 C-1 1 -1 1 0 0 Z " fill="#BB9D75" transform="translate(277,233)"/>
<path d="M0 0 C1.14662109 -0.04350586 1.14662109 -0.04350586 2.31640625 -0.08789062 C6.27666968 -0.13234954 8.27921284 0.02349584 11.734375 2.14453125 C14.73587156 5.3728851 14.87329573 7.96870443 14.84765625 12.19921875 C14.84443359 13.13701172 14.84121094 14.07480469 14.83789062 15.04101562 C14.82951172 16.01748047 14.82113281 16.99394531 14.8125 18 C14.80798828 18.98806641 14.80347656 19.97613281 14.79882812 20.99414062 C14.78704303 23.43365474 14.77059011 25.87304689 14.75 28.3125 C12.8125 28.875 12.8125 28.875 10.75 29.3125 C9.21344724 27.77594724 9.57021276 26.30239164 9.50390625 24.1640625 C9.47103516 23.32359375 9.43816406 22.483125 9.40429688 21.6171875 C9.34337073 19.83866245 9.28604626 18.06001018 9.23242188 16.28125 C9.19826172 15.43820313 9.16410156 14.59515625 9.12890625 13.7265625 C9.1038501 12.9526416 9.07879395 12.1787207 9.05297852 11.38134766 C8.85622971 9.00787475 8.85622971 9.00787475 6.75 6.3125 C3.29230809 5.72907647 3.29230809 5.72907647 -0.25 6.3125 C-3.08027255 8.75443283 -3.47728284 11.07255545 -3.76171875 14.640625 C-3.83446328 16.28068349 -3.89262733 17.9214424 -3.9375 19.5625 C-3.97166016 20.40296875 -4.00582031 21.2434375 -4.04101562 22.109375 C-4.12323568 24.17662204 -4.18830157 26.24453874 -4.25 28.3125 C-6.1875 28.875 -6.1875 28.875 -8.25 29.3125 C-10.05279191 27.50970809 -9.38036605 24.77202299 -9.3828125 22.34375 C-9.38410156 21.13332031 -9.38539063 19.92289063 -9.38671875 18.67578125 C-9.38285156 17.40089844 -9.37898437 16.12601563 -9.375 14.8125 C-9.37886719 13.53761719 -9.38273438 12.26273438 -9.38671875 10.94921875 C-9.38542969 9.73878906 -9.38414062 8.52835938 -9.3828125 7.28125 C-9.38168457 6.16169922 -9.38055664 5.04214844 -9.37939453 3.88867188 C-9.10709222 -1.53271311 -4.332938 0.05371411 0 0 Z " fill="#BB9D74" transform="translate(182.25,232.6875)"/>
<path d="M0 0 C1.65 0.33 3.3 0.66 5 1 C5 3.31 5 5.62 5 8 C6.32 8 7.64 8 9 8 C9 9.65 9 11.3 9 13 C7.68 13 6.36 13 5 13 C5.02356567 13.93851807 5.02356567 13.93851807 5.04760742 14.89599609 C5.10984675 17.72223931 5.14895462 20.54833861 5.1875 23.375 C5.22520508 24.85226563 5.22520508 24.85226563 5.26367188 26.359375 C5.27817383 27.77089844 5.27817383 27.77089844 5.29296875 29.2109375 C5.31653442 30.51490479 5.31653442 30.51490479 5.34057617 31.84521484 C5.17199097 32.9118335 5.17199097 32.9118335 5 34 C4.01 34.66 3.02 35.32 2 36 C1.34 35.67 0.68 35.34 0 35 C0 27.74 0 20.48 0 13 C-1.32 13 -2.64 13 -4 13 C-4 11.35 -4 9.7 -4 8 C-2.68 8 -1.36 8 0 8 C0 5.36 0 2.72 0 0 Z " fill="#BEA27B" transform="translate(122,226)"/>
<path d="M0 0 C0.66 1.32 1.32 2.64 2 4 C2.33 3.01 2.66 2.02 3 1 C3.66 1 4.32 1 5 1 C5.33 6.94 5.66 12.88 6 19 C10.62 19 15.24 19 20 19 C20 19.99 20 20.98 20 22 C14.39 22 8.78 22 3 22 C2.34 24.31 1.68 26.62 1 29 C-0.984375 27.85546875 -0.984375 27.85546875 -3 26 C-3.390625 23.30078125 -3.390625 23.30078125 -3.25 20.3125 C-3.21390625 19.31863281 -3.1778125 18.32476562 -3.140625 17.30078125 C-3.09421875 16.54152344 -3.0478125 15.78226562 -3 15 C-2.01 16.485 -2.01 16.485 -1 18 C-1.01160156 16.78441406 -1.02320313 15.56882812 -1.03515625 14.31640625 C-1.04453278 12.73177236 -1.05363313 11.14713682 -1.0625 9.5625 C-1.07506836 8.35883789 -1.07506836 8.35883789 -1.08789062 7.13085938 C-1.0965143 5.08704779 -1.0522815 3.04316098 -1 1 C-0.67 0.67 -0.34 0.34 0 0 Z " fill="#68A1C2" transform="translate(378,241)"/>
<path d="M0 0 C0.99 0 1.98 0 3 0 C4.19695817 8.07725103 3.91159896 15.92087022 3.5625 24.0625 C3.50915126 25.41859576 3.45641226 26.77471565 3.40429688 28.13085938 C3.27550683 31.42085957 3.14058296 34.71048617 3 38 C2.01 38.495 2.01 38.495 1 39 C0.34 38.67 -0.32 38.34 -1 38 C-1.19362767 33.71378751 -1.3721176 29.42728051 -1.53710938 25.13989258 C-1.59520971 23.68399511 -1.65731493 22.22825137 -1.72363281 20.77270508 C-1.81870244 18.67036983 -1.89895595 16.56788763 -1.9765625 14.46484375 C-2.02893066 13.202771 -2.08129883 11.94069824 -2.13525391 10.64038086 C-1.98828326 6.68464204 -1.23374084 3.73701364 0 0 Z " fill="#B59367" transform="translate(268,223)"/>
<path d="M0 0 C1.98 0.495 1.98 0.495 4 1 C4 10.24 4 19.48 4 29 C3.01 29.33 2.02 29.66 1 30 C0.34 29.67 -0.32 29.34 -1 29 C-1.02465881 25.03069011 -1.04284023 21.06140966 -1.05493164 17.09204102 C-1.05997057 15.74079614 -1.06680177 14.38955674 -1.07543945 13.03833008 C-1.08752419 11.09979566 -1.09269828 9.161222 -1.09765625 7.22265625 C-1.10289307 6.05484619 -1.10812988 4.88703613 -1.11352539 3.68383789 C-1 1 -1 1 0 0 Z " fill="#AA8451" transform="translate(134,232)"/>
<path d="M0 0 C0.66 0.33 1.32 0.66 2 1 C2.625 4.0625 2.625 4.0625 3 7 C2.01 7.33 1.02 7.66 0 8 C0.020625 8.804375 0.04125 9.60875 0.0625 10.4375 C0 13 0 13 -1 14 C-8.35368501 15.31253716 -15.70713237 14.97303084 -23.125 14.5625 C-24.176875 14.51029297 -25.22875 14.45808594 -26.3125 14.40429688 C-28.8754155 14.2761511 -31.43778064 14.14127766 -34 14 C-34 13.34 -34 12.68 -34 12 C-23.77 12 -13.54 12 -3 12 C-2.67 9.36 -2.34 6.72 -2 4 C-0.9375 1.5 -0.9375 1.5 0 0 Z " fill="#438AB3" transform="translate(359,250)"/>
<path d="M0 0 C2.56616632 3.84924948 2.55097676 6.4349304 3 11 C3 8.69 3 6.38 3 4 C3.66 3.67 4.32 3.34 5 3 C5.11632513 6.41637953 5.18728897 9.83224897 5.25 13.25 C5.28351563 14.21808594 5.31703125 15.18617188 5.3515625 16.18359375 C5.36445313 17.11816406 5.37734375 18.05273438 5.390625 19.015625 C5.4220459 20.30388184 5.4220459 20.30388184 5.45410156 21.61816406 C5 24 5 24 1 28 C0.67 18.76 0.34 9.52 0 0 Z " fill="#ECF1F3" transform="translate(331,134)"/>
<path d="M0 0 C0.33 0 0.66 0 1 0 C1.33 2.97 1.66 5.94 2 9 C2.66 8.34 3.32 7.68 4 7 C4.27672202 8.91299138 4.52042815 10.83077936 4.75 12.75 C4.88921875 13.81734375 5.0284375 14.8846875 5.171875 15.984375 C5 19 5 19 3.015625 21.390625 C2.35046875 21.92171875 1.6853125 22.4528125 1 23 C0 22 0 22 -0.11352539 19.86694336 C-0.10828857 18.95050049 -0.10305176 18.03405762 -0.09765625 17.08984375 C-0.09443359 16.10048828 -0.09121094 15.11113281 -0.08789062 14.09179688 C-0.07951172 13.05087891 -0.07113281 12.00996094 -0.0625 10.9375 C-0.05798828 9.89271484 -0.05347656 8.84792969 -0.04882812 7.77148438 C-0.03699913 5.1809334 -0.02051689 2.59049441 0 0 Z " fill="#5A98BD" transform="translate(374,258)"/>
<path d="M0 0 C1.98 0.495 1.98 0.495 4 1 C4 10.24 4 19.48 4 29 C3.67 29 3.34 29 3 29 C3 20.09 3 11.18 3 2 C2.01 2.495 2.01 2.495 1 3 C0.67 11.58 0.34 20.16 0 29 C-0.33 29 -0.66 29 -1 29 C-1.02465881 25.03069011 -1.04284023 21.06140966 -1.05493164 17.09204102 C-1.05997057 15.74079614 -1.06680177 14.38955674 -1.07543945 13.03833008 C-1.08752419 11.09979566 -1.09269828 9.161222 -1.09765625 7.22265625 C-1.10289307 6.05484619 -1.10812988 4.88703613 -1.11352539 3.68383789 C-1 1 -1 1 0 0 Z " fill="#E3D7C7" transform="translate(134,232)"/>
<path d="M0 0 C3 2 3 2 3.875 4.4375 C4 7 4 7 2.875 8.8125 C0.38813841 10.38751234 -1.1100296 10.44461083 -4 10 C-6 7 -6 7 -5.625 4.8125 C-5.41875 4.214375 -5.2125 3.61625 -5 3 C-4.34 3 -3.68 3 -3 3 C-2.67 3.66 -2.34 4.32 -2 5 C-1.34 3.35 -0.68 1.7 0 0 Z " fill="#7FAFCB" transform="translate(366,254)"/>
<path d="M0 0 C2.0625 0.4375 2.0625 0.4375 4 1 C4 2.98 4 4.96 4 7 C2.35 7.33 0.7 7.66 -1 8 C-1.04241723 5.66705225 -1.04092937 3.33297433 -1 1 C-0.67 0.67 -0.34 0.34 0 0 Z " fill="#DFD1BE" transform="translate(134,222)"/>
<path d="M0 0 C0.99 0.33 1.98 0.66 3 1 C-0.63 4.63 -4.26 8.26 -8 12 C-8 8.24111186 -7.049166 7.58681685 -4.5625 4.875 C-3.92441406 4.17117187 -3.28632812 3.46734375 -2.62890625 2.7421875 C-1.76410115 1.81724008 -0.89538137 0.89538137 0 0 Z " fill="#E0D5B5" transform="translate(111,137)"/>
<path d="M0 0 C0.66 0.33 1.32 0.66 2 1 C2.625 4.0625 2.625 4.0625 3 7 C1.35 7.66 -0.3 8.32 -2 9 C-1.125 1.125 -1.125 1.125 0 0 Z " fill="#5192B9" transform="translate(359,250)"/>
<path d="M0 0 C0.99 0.33 1.98 0.66 3 1 C2.67 3.97 2.34 6.94 2 10 C1.34 10 0.68 10 0 10 C-0.33 10.66 -0.66 11.32 -1 12 C-1.14285714 3.42857143 -1.14285714 3.42857143 0 0 Z " fill="#5595BB" transform="translate(368,246)"/>
<path d="M0 0 C0.33 0 0.66 0 1 0 C1.22211116 1.93596892 1.42722992 3.87389328 1.625 5.8125 C1.74101562 6.89144531 1.85703125 7.97039062 1.9765625 9.08203125 C2 12 2 12 0 15 C-1.03876383 11.88370851 -1.13361625 9.6405571 -1.125 6.375 C-1.12757813 5.39273438 -1.13015625 4.41046875 -1.1328125 3.3984375 C-1 1 -1 1 0 0 Z " fill="#F3F7F9" transform="translate(378,241)"/>
<path d="M0 0 C-1.16364187 2.32728375 -2.45727478 3.38692482 -4.4375 5.0625 C-5.05496094 5.58972656 -5.67242187 6.11695313 -6.30859375 6.66015625 C-8 8 -8 8 -10 9 C-8.11841723 3.35525168 -6.26153661 0 0 0 Z " fill="#CDB799" transform="translate(161,223)"/>
<path d="M0 0 C0.66 0 1.32 0 2 0 C0.69425831 2.91280837 -0.7074208 4.80294493 -3 7 C-3.66 7.99 -4.32 8.98 -5 10 C-4.49890042 5.61537866 -3.01704885 3.1999003 0 0 Z " fill="#CCB698" transform="translate(309,233)"/>
<path d="M0 0 C0.99 0.33 1.98 0.66 3 1 C2.0479279 2.00596297 1.08812654 3.00461563 0.125 4 C-0.40867187 4.556875 -0.94234375 5.11375 -1.4921875 5.6875 C-3 7 -3 7 -5 7 C-3.70700306 4.11562221 -2.34058637 2.12780579 0 0 Z " fill="#C6AC8A" transform="translate(29,225)"/>
<path d="M0 0 C0.33 0 0.66 0 1 0 C1.29296875 6.0546875 1.29296875 6.0546875 1 8 C0.01 8.66 -0.98 9.32 -2 10 C-1.85950482 8.52031676 -1.71245174 7.04125484 -1.5625 5.5625 C-1.48128906 4.73878906 -1.40007812 3.91507812 -1.31640625 3.06640625 C-1 1 -1 1 0 0 Z " fill="#B6D1E1" transform="translate(381,254)"/>
<path d="M0 0 C0.66 0.33 1.32 0.66 2 1 C-0.31 3.31 -2.62 5.62 -5 8 C-5.66 7.67 -6.32 7.34 -7 7 C-4.66666667 4.66666667 -2.33333333 2.33333333 0 0 Z " fill="#E3DABF" transform="translate(240,138)"/>
<path d="M0 0 C0.99 0.99 1.98 1.98 3 3 C-0.29696105 4.09898702 -1.40494903 3.87124444 -4.6875 3.0625 C-5.89986328 2.77052734 -5.89986328 2.77052734 -7.13671875 2.47265625 C-8.05904297 2.23869141 -8.05904297 2.23869141 -9 2 C-5.61682513 1.02408417 -3.4342662 1.14143345 0 2 C0 1.34 0 0.68 0 0 Z " fill="#E8E0C9" transform="translate(249,126)"/>
<path d="M0 0 C0.66 0 1.32 0 2 0 C2 1.98 2 3.96 2 6 C1.01 6 0.02 6 -1 6 C-1.042721 4.33388095 -1.04063832 2.66617115 -1 1 C-0.67 0.67 -0.34 0.34 0 0 Z " fill="#AD8857" transform="translate(135,224)"/>
</svg>
