<?xml version="1.0" standalone="no"?>
<!DOCTYPE svg PUBLIC "-//W3C//DTD SVG 20010904//EN"
 "http://www.w3.org/TR/2001/REC-SVG-20010904/DTD/svg10.dtd">
<svg version="1.0" xmlns="http://www.w3.org/2000/svg"
 width="1276.000000pt" height="841.000000pt" viewBox="0 0 1276.000000 841.000000"
 preserveAspectRatio="xMidYMid meet">

<g transform="translate(0.000000,841.000000) scale(0.100000,-0.100000)"
fill="#000000" stroke="none">
<path d="M6260 6578 c-213 -12 -417 -66 -617 -163 -764 -366 -1142 -1230 -896
-2045 191 -635 750 -1107 1413 -1196 662 -88 1324 224 1677 791 385 617 339
1407 -115 1977 -116 145 -237 255 -397 361 -318 209 -667 300 -1065 275z m342
-143 c368 -55 670 -212 927 -481 219 -229 358 -508 412 -825 18 -106 21 -150
16 -304 -6 -196 -23 -294 -77 -457 -174 -520 -621 -920 -1159 -1038 -147 -33
-322 -44 -461 -31 -228 21 -381 65 -585 166 -495 246 -826 742 -864 1295 -25
359 69 704 272 1005 87 128 294 333 423 418 211 140 446 226 709 260 76 10
299 5 387 -8z"/>
<path d="M6317 6286 c-70 -65 -30 -176 63 -176 51 0 86 22 100 65 14 42 5 77
-27 110 -35 34 -99 35 -136 1z"/>
<path d="M6279 6029 c-121 -17 -238 -70 -333 -149 -60 -50 -139 -146 -170
-209 -33 -65 -67 -178 -69 -233 -2 -41 2 -51 31 -80 l32 -34 0 -381 0 -382 22
-15 c30 -21 71 -20 91 2 15 17 17 61 17 432 l0 414 -27 28 c-26 27 -27 30 -14
76 38 143 143 272 272 336 141 68 246 81 383 46 164 -42 283 -136 355 -281 57
-113 61 -143 25 -180 l-29 -30 0 -409 c0 -396 1 -410 20 -428 11 -11 157 -72
325 -136 168 -64 312 -121 320 -126 13 -8 11 -16 -10 -57 -40 -76 -137 -201
-218 -281 -184 -182 -407 -302 -662 -358 -65 -14 -126 -19 -260 -19 -155 1
-187 4 -280 27 -266 67 -457 173 -635 352 -92 92 -192 230 -247 340 -17 34
-37 69 -46 79 -35 40 -112 6 -112 -50 0 -16 23 -70 50 -122 194 -365 519 -621
915 -722 345 -87 677 -52 1000 105 254 124 450 309 609 576 89 150 96 196 33
226 -17 8 -174 70 -347 137 l-315 122 -3 339 -2 340 32 33 c29 30 33 40 31 82
-3 75 -48 202 -101 282 -151 230 -413 348 -683 308z"/>
<path d="M6327 5339 c-43 -25 -47 -55 -47 -329 0 -173 4 -269 11 -283 39 -76
148 -77 184 -2 12 27 15 78 15 283 0 138 -4 262 -9 275 -17 43 -51 67 -95 67
-23 0 -49 -5 -59 -11z"/>
<path d="M4070 2645 l0 -165 30 0 30 0 0 70 0 69 63 3 c56 3 62 5 65 26 3 21
0 22 -62 22 l-66 0 0 45 0 45 70 0 c68 0 70 1 70 25 l0 25 -100 0 -100 0 0
-165z"/>
<path d="M4957 2803 c-4 -3 -7 -22 -7 -42 l0 -36 -48 3 c-41 3 -51 0 -75 -23
-50 -51 -49 -151 3 -197 26 -24 39 -28 89 -28 96 0 91 -10 91 171 l0 159 -23
0 c-13 0 -27 -3 -30 -7z m-9 -200 l3 -73 -35 0 c-42 0 -66 28 -66 79 0 46 25
73 64 69 l31 -3 3 -72z"/>
<path d="M5505 2796 c-27 -20 -15 -51 20 -51 23 0 31 5 33 22 4 29 -28 47 -53
29z"/>
<path d="M5756 2794 c-20 -53 13 -75 39 -24 20 38 19 40 -9 40 -13 0 -27 -7
-30 -16z"/>
<path d="M6210 2695 c0 -174 25 -215 130 -215 105 0 130 41 130 215 l0 115
-30 0 -30 0 0 -109 c0 -60 -4 -121 -10 -135 -17 -47 -97 -47 -118 -1 -7 15
-12 73 -12 135 l0 110 -30 0 -30 0 0 -115z"/>
<path d="M6785 2796 c-27 -20 -15 -51 20 -51 23 0 31 5 33 22 4 29 -28 47 -53
29z"/>
<path d="M7732 2801 c-8 -4 -12 -19 -10 -32 2 -18 9 -24 28 -24 19 0 26 6 28
24 3 20 -11 41 -28 41 -3 0 -11 -4 -18 -9z"/>
<path d="M7830 2676 c0 -183 11 -202 106 -194 31 2 40 7 42 25 3 19 -2 22 -40
25 l-43 3 -3 73 -3 72 41 0 c36 0 40 2 40 25 0 22 -4 25 -39 25 -39 0 -40 1
-43 38 -3 32 -7 37 -30 40 l-28 3 0 -135z"/>
<path d="M8414 2796 c-26 -20 -9 -58 24 -54 21 2 28 9 30 29 4 31 -27 45 -54
25z"/>
<path d="M4290 2646 c0 -143 21 -169 130 -164 l65 3 3 123 3 122 -26 0 -25 0
0 -100 0 -100 -33 0 c-50 0 -57 14 -57 112 l0 88 -30 0 -30 0 0 -84z"/>
<path d="M4563 2723 c-10 -3 -13 -38 -13 -124 l0 -119 25 0 c24 0 24 1 27 98
l3 97 35 0 c46 0 60 -28 60 -122 0 -71 1 -73 25 -73 l25 0 0 100 c0 94 -2 103
-25 125 -21 22 -33 25 -87 24 -35 0 -69 -3 -75 -6z"/>
<path d="M5077 2723 c-4 -3 -7 -15 -7 -25 0 -15 7 -18 45 -16 45 1 75 -14 75
-38 0 -10 -14 -14 -50 -14 -64 0 -90 -23 -90 -80 0 -56 27 -72 116 -68 l69 3
3 99 c3 90 1 101 -19 122 -19 20 -33 24 -79 24 -31 0 -60 -3 -63 -7z m113
-163 c0 -34 -17 -45 -55 -36 -55 14 -38 66 21 66 31 0 34 -3 34 -30z"/>
<path d="M5328 2710 c-60 -47 -64 -153 -8 -203 28 -25 38 -28 88 -25 49 3 57
6 57 23 0 17 -8 20 -47 23 -54 4 -78 27 -78 77 0 50 24 75 74 75 35 0 45 4 49
19 7 28 1 31 -58 31 -37 0 -60 -6 -77 -20z"/>
<path d="M5500 2605 l0 -125 25 0 25 0 0 125 0 125 -25 0 -25 0 0 -125z"/>
<path d="M5637 2709 c-56 -43 -60 -148 -7 -201 24 -23 37 -28 78 -28 61 0 97
25 113 80 16 52 4 107 -31 142 -24 23 -37 28 -78 28 -35 0 -57 -6 -75 -21z
m117 -51 c36 -51 9 -128 -44 -128 -35 0 -60 31 -60 75 0 44 25 75 60 75 18 0
34 -8 44 -22z"/>
<path d="M5883 2723 c-10 -3 -13 -38 -13 -124 l0 -119 25 0 25 0 0 100 0 100
33 0 c50 0 57 -14 57 -112 l0 -88 30 0 30 0 0 90 c0 95 -14 142 -45 154 -19 7
-124 7 -142 -1z"/>
<path d="M6538 2723 c-16 -4 -18 -19 -18 -124 l0 -119 30 0 30 0 0 100 0 100
35 0 c46 0 55 -20 55 -119 l0 -81 31 0 31 0 -4 101 c-4 96 -5 103 -31 125 -23
20 -38 24 -85 23 -31 -1 -65 -3 -74 -6z"/>
<path d="M6780 2605 l0 -125 25 0 25 0 0 125 0 125 -25 0 -25 0 0 -125z"/>
<path d="M6860 2721 c0 -14 60 -182 77 -214 11 -22 20 -28 40 -25 23 3 31 15
64 98 21 52 41 107 44 123 7 25 5 27 -22 27 -27 0 -30 -4 -58 -87 l-28 -88
-13 30 c-7 17 -21 56 -30 88 -15 52 -19 57 -45 57 -16 0 -29 -4 -29 -9z"/>
<path d="M7151 2716 c-36 -20 -50 -54 -51 -119 0 -53 3 -62 31 -88 28 -26 38
-29 94 -29 66 0 80 8 71 38 -5 14 -15 16 -50 14 -52 -4 -86 11 -86 38 0 18 7
20 81 20 l82 0 -7 31 c-3 17 -6 37 -6 44 0 7 -12 24 -26 39 -30 30 -91 35
-133 12z m99 -55 c15 -30 14 -31 -40 -31 -34 0 -50 4 -50 13 0 38 71 52 90 18z"/>
<path d="M7378 2723 c-16 -4 -18 -19 -18 -124 l0 -119 25 0 c24 0 24 1 27 98
l3 97 43 3 c37 3 42 6 42 28 0 23 -3 24 -52 23 -29 -1 -61 -3 -70 -6z"/>
<path d="M7535 2705 c-44 -43 -29 -83 45 -120 54 -27 59 -35 34 -56 -12 -10
-25 -10 -56 -2 -32 9 -41 8 -45 -3 -12 -33 5 -44 70 -44 53 0 67 4 85 23 41
44 24 85 -48 122 -28 14 -50 29 -50 34 0 20 30 32 64 25 34 -6 36 -5 36 20 0
25 -2 26 -55 26 -46 0 -60 -4 -80 -25z"/>
<path d="M7720 2605 l0 -125 30 0 30 0 0 125 0 125 -30 0 -30 0 0 -125z"/>
<path d="M8020 2706 c0 -23 4 -25 53 -28 45 -3 52 -6 55 -25 3 -21 -1 -23 -43
-23 -81 0 -120 -65 -74 -124 20 -25 25 -27 98 -24 l76 3 3 98 c3 92 1 98 -22
122 -21 21 -34 25 -86 25 -57 0 -60 -1 -60 -24z m110 -152 c0 -34 -1 -35 -31
-32 -63 6 -61 68 2 68 27 0 29 -3 29 -36z"/>
<path d="M8258 2723 c-16 -4 -18 -19 -18 -124 l0 -119 30 0 30 0 0 100 0 100
39 0 c37 0 51 11 51 41 0 9 -100 11 -132 2z"/>
<path d="M8410 2606 l0 -126 30 0 31 0 -3 123 -3 122 -27 3 -28 3 0 -125z"/>
<path d="M8530 2705 c0 -23 3 -25 50 -25 43 0 52 -3 59 -22 8 -22 5 -23 -46
-28 -42 -4 -60 -11 -74 -29 -26 -32 -24 -67 6 -97 23 -23 31 -25 97 -22 l73 3
3 98 c3 92 1 98 -22 122 -21 21 -34 25 -86 25 -57 0 -60 -1 -60 -25z m115
-150 c0 -27 -3 -30 -34 -30 -41 0 -62 25 -41 50 8 10 25 15 44 13 27 -3 31 -7
31 -33z"/>
<path d="M4866 2339 c-7 -37 -1 -49 23 -49 10 0 24 15 34 35 22 46 22 45 -17
45 -29 0 -34 -4 -40 -31z"/>
<path d="M3135 2256 c-73 -33 -115 -110 -115 -213 1 -102 41 -175 113 -202 66
-25 244 -5 232 27 -3 7 -8 25 -11 39 -6 21 -11 24 -33 19 -71 -17 -109 -18
-139 -2 -41 21 -62 63 -62 126 0 117 68 160 196 124 17 -5 24 0 33 27 6 17 11
35 11 40 0 27 -171 39 -225 15z"/>
<path d="M3925 2247 c-72 -41 -112 -128 -102 -225 7 -67 33 -118 81 -156 31
-26 47 -31 106 -34 87 -5 130 9 174 58 75 83 76 233 3 317 -41 47 -82 63 -159
63 -47 0 -73 -6 -103 -23z m156 -73 c36 -18 59 -67 59 -124 0 -57 -23 -106
-59 -124 -82 -43 -161 18 -161 124 0 107 79 167 161 124z"/>
<path d="M4685 2247 c-142 -80 -139 -324 5 -397 54 -28 149 -27 207 1 81 39
124 166 94 277 -14 51 -64 110 -108 128 -52 22 -151 18 -198 -9z m149 -67 c59
-22 87 -140 51 -210 -17 -32 -61 -60 -95 -60 -88 0 -139 123 -91 219 28 54 77
73 135 51z"/>
<path d="M5155 2256 c-40 -17 -90 -75 -105 -122 -8 -22 -11 -66 -8 -110 9
-133 77 -194 215 -194 39 0 85 3 102 6 l31 7 0 108 0 109 -45 0 -45 0 0 -75 0
-75 -44 0 c-81 0 -122 57 -114 160 4 49 9 66 31 88 23 23 36 27 80 27 28 -1
66 -4 83 -9 28 -7 31 -6 41 29 11 36 11 37 -22 51 -43 17 -160 18 -200 0z"/>
<path d="M5725 2256 c-73 -33 -115 -110 -115 -213 1 -102 41 -175 113 -202 40
-16 162 -13 202 3 33 14 33 15 22 51 -10 32 -14 36 -36 30 -73 -17 -116 -16
-149 4 -39 25 -52 55 -52 122 0 116 69 159 196 123 17 -5 24 0 33 27 6 17 11
35 11 40 0 27 -171 39 -225 15z"/>
<path d="M6068 2250 c-73 -40 -115 -130 -106 -229 6 -63 35 -117 82 -155 31
-26 47 -31 106 -34 87 -5 130 9 174 58 42 46 59 105 54 180 -5 70 -33 125 -81
164 -35 28 -47 31 -115 34 -62 2 -84 -2 -114 -18z m153 -76 c36 -18 59 -67 59
-124 0 -57 -23 -106 -59 -124 -38 -20 -64 -20 -102 0 -76 39 -80 200 -5 245
38 23 67 24 107 3z"/>
<path d="M6655 2256 c-73 -33 -115 -110 -115 -213 0 -84 24 -140 75 -179 32
-24 49 -29 112 -33 87 -4 167 14 158 36 -3 8 -8 26 -11 40 -5 19 -11 23 -28
19 -133 -39 -206 6 -206 124 0 117 68 160 196 124 17 -5 24 0 33 27 6 17 11
35 11 40 0 27 -171 39 -225 15z"/>
<path d="M6995 2247 c-72 -41 -112 -128 -102 -225 7 -67 33 -118 81 -156 31
-26 47 -31 106 -34 87 -5 130 9 174 58 75 83 76 233 3 317 -41 47 -82 63 -159
63 -47 0 -73 -6 -103 -23z m155 -72 c40 -20 60 -63 60 -125 0 -62 -20 -105
-60 -125 -81 -42 -160 19 -160 125 0 106 79 167 160 125z"/>
<path d="M9802 2253 c-79 -39 -118 -121 -110 -233 6 -78 25 -119 75 -157 30
-23 48 -28 110 -32 87 -4 167 14 158 36 -3 8 -8 26 -11 40 -5 19 -11 23 -28
19 -133 -39 -206 6 -206 124 0 117 68 160 196 124 17 -5 24 0 33 27 15 44 15
46 -20 58 -47 16 -158 13 -197 -6z"/>
<path d="M10155 2253 c-78 -41 -109 -98 -109 -203 0 -76 14 -120 53 -164 52
-59 181 -76 262 -33 144 77 128 349 -24 406 -42 16 -147 13 -182 -6z m139 -73
c40 -15 66 -66 66 -130 0 -88 -43 -140 -117 -140 -35 0 -90 57 -98 103 -11 57
3 107 40 144 34 34 63 41 109 23z"/>
<path d="M2310 2220 l0 -40 60 0 60 0 2 -172 3 -173 48 -3 47 -3 0 175 0 176
65 0 65 0 0 40 0 40 -175 0 -175 0 0 -40z"/>
<path d="M2690 2045 l0 -215 150 0 150 0 0 45 0 45 -100 0 -100 0 0 50 0 50
80 0 80 0 0 40 0 40 -80 0 -80 0 0 40 0 39 93 3 92 3 3 38 3 37 -145 0 -146 0
0 -215z"/>
<path d="M3402 2048 l3 -213 47 -3 47 -3 3 140 3 140 45 -61 c25 -34 66 -95
91 -137 45 -74 47 -76 85 -76 l39 0 3 213 2 212 -50 0 -50 0 0 -122 0 -122
-52 77 c-29 42 -70 97 -91 122 -35 41 -42 45 -83 45 l-44 0 2 -212z"/>
<path d="M4292 2048 l3 -213 140 0 140 0 3 43 3 42 -95 0 -96 0 0 170 0 170
-50 0 -50 0 2 -212z"/>
<path d="M5460 2045 l0 -215 45 0 45 0 0 215 0 215 -45 0 -45 0 0 -215z"/>
<path d="M7376 2183 c-16 -188 -24 -339 -16 -346 4 -5 25 -7 46 -5 l39 3 5
127 c3 70 8 129 11 133 4 3 26 -42 49 -100 l43 -105 36 0 36 0 45 109 c24 60
46 108 48 107 2 -2 6 -64 10 -137 l7 -134 43 -3 42 -3 0 73 c0 78 -17 298 -25
336 -5 21 -11 23 -53 20 l-47 -3 -50 -117 c-27 -64 -52 -115 -55 -112 -3 3
-28 56 -55 117 l-50 112 -51 3 -51 3 -7 -78z"/>
<path d="M7890 2045 l0 -215 45 0 45 0 0 90 0 90 85 0 85 0 0 40 0 39 -82 3
-83 3 -3 42 -3 42 93 3 93 3 3 38 3 37 -140 0 -141 0 0 -215z"/>
<path d="M8210 2045 l0 -215 150 0 150 0 0 45 0 45 -106 0 -105 0 3 48 3 47
83 3 82 3 0 39 0 40 -85 0 -85 0 0 40 0 40 95 0 95 0 0 40 0 40 -140 0 -140 0
0 -215z"/>
<path d="M8552 2048 l3 -213 45 0 45 0 5 135 5 134 32 -41 c18 -22 59 -83 92
-134 58 -92 59 -94 97 -94 l39 0 3 213 2 212 -50 0 -50 0 0 -121 0 -121 -56
78 c-111 155 -120 164 -170 164 l-44 0 2 -212z"/>
<path d="M9089 2213 c-59 -135 -139 -353 -139 -375 0 -5 21 -8 46 -6 45 3 47
4 63 48 l17 45 81 3 81 3 17 -51 17 -50 49 0 c27 0 49 4 49 8 0 14 -88 248
-127 339 l-35 83 -50 0 c-49 0 -49 0 -69 -47z m95 -121 c14 -37 26 -73 26 -80
0 -8 -18 -12 -55 -12 -30 0 -55 3 -55 7 0 7 54 153 56 153 1 0 14 -30 28 -68z"/>
<path d="M9400 2045 l0 -215 140 0 140 0 0 45 0 45 -90 0 -90 0 0 170 0 170
-50 0 -50 0 0 -215z"/>
</g>
</svg>
